<svg width="32" height="32" viewBox="0 0 32 32" fill="none" xmlns="http://www.w3.org/2000/svg">
<circle cx="16" cy="16" r="16" fill="#F29D52"/>
<path d="M16.8351 12.3314C15.8423 12.3314 14.913 12.6066 14.1212 13.0865V8.3811H10.6667V22.5874H14.1212V22.1022C14.913 22.5803 15.8423 22.8573 16.8351 22.8573C19.7394 22.8573 22.0953 20.5002 22.0953 17.5943C22.0953 14.6868 19.7412 12.3314 16.8351 12.3314ZM16.3255 19.7168C15.1087 19.7168 14.1212 18.7288 14.1212 17.5114C14.1212 16.294 15.1087 15.306 16.3255 15.306C17.5422 15.306 18.5297 16.294 18.5297 17.5114C18.5297 18.7306 17.5422 19.7168 16.3255 19.7168Z" fill="white"/>
</svg>
