<svg width="32" height="32" viewBox="0 0 32 32" fill="none" xmlns="http://www.w3.org/2000/svg">
<circle cx="16" cy="16" r="16" fill="#F29D52"/>
<path d="M19.8097 8.3811H12.1906C10.0867 8.3811 8.3811 10.0867 8.3811 12.1906V19.8097C8.3811 21.9136 10.0867 23.6192 12.1906 23.6192H19.8097C21.9136 23.6192 23.6192 21.9136 23.6192 19.8097V12.1906C23.6192 10.0867 21.9136 8.3811 19.8097 8.3811Z" stroke="white" stroke-width="2" stroke-linecap="round" stroke-linejoin="round"/>
<path d="M19.0476 15.52C19.1417 16.1541 19.0333 16.8017 18.7381 17.3707C18.4429 17.9397 17.9757 18.4011 17.4032 18.6893C16.8306 18.9775 16.1817 19.0778 15.5488 18.976C14.9159 18.8741 14.3313 18.5753 13.878 18.122C13.4247 17.6688 13.1259 17.0841 13.0241 16.4512C12.9222 15.8183 13.0225 15.1695 13.3107 14.5969C13.5989 14.0243 14.0603 13.5572 14.6293 13.2619C15.1983 12.9667 15.8459 12.8584 16.48 12.9524C17.1268 13.0483 17.7256 13.3497 18.188 13.8121C18.6503 14.2744 18.9517 14.8732 19.0476 15.52Z" stroke="white" stroke-width="2" stroke-linecap="round" stroke-linejoin="round"/>
<path d="M20.1904 11.8096H20.198" stroke="white" stroke-width="2" stroke-linecap="round" stroke-linejoin="round"/>
</svg>
