<svg width="32" height="32" viewBox="0 0 32 32" fill="none" xmlns="http://www.w3.org/2000/svg">
<circle cx="16" cy="16" r="16" fill="#F29D52"/>
<path d="M24.0305 11.7486C23.94 11.387 23.7557 11.0557 23.4962 10.7881C23.2366 10.5206 22.9111 10.3263 22.5524 10.2248C21.2419 9.90479 16 9.90479 16 9.90479C16 9.90479 10.7581 9.90479 9.44766 10.2553C9.08899 10.3567 8.76345 10.5511 8.50392 10.8186C8.2444 11.0862 8.06007 11.4175 7.96956 11.7791C7.72973 13.109 7.61241 14.4582 7.61909 15.8095C7.61054 17.1711 7.72786 18.5305 7.96956 19.8705C8.06934 20.2209 8.2578 20.5396 8.51672 20.7958C8.77565 21.0521 9.09628 21.2372 9.44766 21.3334C10.7581 21.6838 16 21.6838 16 21.6838C16 21.6838 21.2419 21.6838 22.5524 21.3334C22.9111 21.2319 23.2366 21.0376 23.4962 20.77C23.7557 20.5024 23.94 20.1711 24.0305 19.8095C24.2685 18.4896 24.3858 17.1508 24.381 15.8095C24.3895 14.448 24.2722 13.0886 24.0305 11.7486Z" fill="white"/>
<path d="M14.2856 18.301L18.6666 15.8095L14.2856 13.3181V18.301Z" fill="#F29D52"/>
</svg>
